Coordinates
version=1
nRows=4
nColumns=63
inDegrees=yes

Units are S.I. units (second, meters, Newtons, ...)
If the header above contains a line with 'inDegrees', this indicates whether rotational values are in degrees (yes) or radians (no).

endheader
time	pelvis_tilt	pelvis_list	pelvis_rotation	pelvis_tx	pelvis_ty	pelvis_tz	hip_flexion_r	hip_adduction_r	hip_rotation_r	knee_angle_r	knee_angle_r_beta	ankle_angle_r	subtalar_angle_r	mtp_angle_r	hip_flexion_l	hip_adduction_l	hip_rotation_l	knee_angle_l	knee_angle_l_beta	ankle_angle_l	subtalar_angle_l	mtp_angle_l	L5_S1_Flex_Ext	L5_S1_Lat_Bending	L5_S1_axial_rotation	L4_L5_Flex_Ext	L4_L5_Lat_Bending	L4_L5_axial_rotation	L3_L4_Flex_Ext	L3_L4_Lat_Bending	L3_L4_axial_rotation	L2_L3_Flex_Ext	L2_L3_Lat_Bending	L2_L3_axial_rotation	L1_L2_Flex_Ext	L1_L2_Lat_Bending	L1_L2_axial_rotation	L1_T12_Flex_Ext	L1_T12_Lat_Bending	L1_T12_axial_rotation	Abs_r3	Abs_r2	Abs_r1	Abs_t1	Abs_t2	neck_flexion	neck_bending	neck_rotation	arm_flex_r	arm_add_r	arm_rot_r	elbow_flex_r	pro_sup_r	wrist_flex_r	wrist_dev_r	arm_flex_l	arm_add_l	arm_rot_l	elbow_flex_l	pro_sup_l	wrist_flex_l	wrist_dev_l
      0.00000000	     -4.29195847	     -4.64227350	     83.19942963	      0.16496512	      1.01659125	      0.36337804	     -2.75345857	      1.34953032	     19.46172025	      0.29755046	      0.00519324	     28.42662314	    -16.73951463	      0.00000000	     -1.59353149	     -1.51822958	      5.33254901	      2.78185558	      0.04855254	     31.77112111	    -12.78852255	      0.00000000	     -0.03678197	     -0.15290723	      2.66798451	     -0.06830779	     -0.20336662	      2.83473354	     -0.06042910	     -0.37177864	      2.83473354	     -0.04203811	     -0.37177864	      2.33448644	     -0.03415574	     -0.31180843	      2.16773741	     -0.02101722	     -0.23685330	      2.00098838	     -0.26272992	     -1.72971719	     14.83852944	      0.00000000	      0.00000000	     26.35758575	     -4.32791279	    -14.71190298	     12.03734649	     -0.89030476	     85.01889110	     24.00918126	     35.94287328	     -4.83342286	      0.31546718	     18.69610584	      0.17480352	    102.49859243	     24.43660704	     42.65519649	     -4.74317221	      0.34312647
      0.01666667	     -4.12788381	     -4.36299296	     82.89660134	      0.16611058	      1.01733047	      0.36014385	     -3.11755093	      1.54105070	     19.31528187	      0.30008419	      0.00523746	     29.25272556	    -16.48665597	      0.00000000	     -2.32343122	     -1.67594900	      5.49495799	      2.01830061	      0.03522599	     32.16421219	    -12.79017398	      0.00000000	      0.00287009	     -0.12389405	      2.62832736	      0.00533005	     -0.16477909	      2.79259782	      0.00471528	     -0.30123600	      2.79259782	      0.00328023	     -0.30123600	      2.29978644	      0.00266517	     -0.25264475	      2.13551598	      0.00163997	     -0.19191189	      1.97124552	      0.02050079	     -1.40151432	     14.61796829	      0.00000000	      0.00000000	     26.61645644	     -4.45816174	    -14.08319963	     11.63739305	     -0.63213321	     85.43266261	     23.83866059	     35.86625436	     -4.68432286	      0.41996644	     17.68406538	     -0.20090476	    102.06123548	     24.23511601	     42.06442134	     -5.09946037	     -0.73427696
      0.03333333	     -3.96277279	     -4.11037356	     82.84246958	      0.16663715	      1.01799845	      0.35792198	     -3.46371935	      1.71498198	     18.84824197	      0.31255004	      0.00545503	     29.82271494	    -15.99269883	      0.00000000	     -2.84609228	     -1.82688716	      6.51019564	      1.56095539	      0.02724381	     32.21515211	    -13.73930018	      0.00000000	      0.02075844	     -0.09719139	      2.56226370	      0.03855050	     -0.12926455	      2.72240518	      0.03410404	     -0.23631114	      2.72240518	      0.02372482	     -0.23631114	      2.24198074	      0.01927629	     -0.19819268	      2.08183925	      0.01186137	     -0.15054946	      1.92169777	      0.14827548	     -1.09944841	     14.25054201	      0.00000000	      0.00000000	     26.80063137	     -4.35088773	    -13.34326093	     11.85592764	     -0.35348374	     88.66728201	     23.43261032	     32.83740779	     -4.46339867	     -0.24367850	     17.24834255	     -0.26315961	    103.73340302	     23.98391209	     37.63868167	     -5.08841191	     -1.69781765
      0.05000000	     -3.89203658	     -4.10355869	     82.90885602	      0.16695357	      1.01817211	      0.35655000	     -3.53422011	      1.82956842	     17.72519738	      0.33755782	      0.00589150	     30.32104595	    -14.80470509	      0.00000000	     -2.92887667	     -1.94565042	      5.93737558	      1.43111536	      0.02497767	     32.78963938	    -12.34445439	      0.00000000	      0.05524161	     -0.08794014	      2.52525157	      0.10258920	     -0.11696039	      2.68307980	      0.09075644	     -0.21381765	      2.68307980	      0.06313564	     -0.21381765	      2.20959513	      0.05129736	     -0.17932753	      2.05176690	      0.03156506	     -0.13621928	      1.89393868	      0.39458530	     -0.99479644	     14.04469167	      0.00000000	      0.00000000	     26.95292427	     -4.33370576	    -13.20318150	     11.57331324	     -0.18359752	     88.51138813	     23.29995639	     33.14575656	     -4.61155287	     -0.06128584	     16.82970190	     -0.37917559	    103.47301686	     23.92615923	     37.70044502	     -5.21581831	     -1.56415037
